<?xml version="1.0"?>
<svg xmlns="http://www.w3.org/2000/svg" id="Layer_1" data-name="Layer 1" viewBox="0 0 64 64" width="512px" height="512px"><g><polygon points="38 0.54 38 10 47.46 10 38 0.54" data-original="#000000" class="active-path" data-old_color="#000000" fill="#E3E9ED"/><path d="M38.976,34.877a15.727,15.727,0,0,1,9.057-2.888V12H37a1,1,0,0,1-1-1V-.032H1A1.032,1.032,0,0,0-.032,1V63A1.032,1.032,0,0,0,1,64.032H47a1.029,1.029,0,0,0,.4-.081,16,16,0,0,1-8.425-29.074ZM8,6H21a1,1,0,0,1,0,2H8A1,1,0,0,1,8,6Zm10,5a1,1,0,0,1-1,1H16a1,1,0,0,1,0-2h1A1,1,0,0,1,18,11Zm-4,0a1,1,0,0,1-1,1H12a1,1,0,0,1,0-2h1A1,1,0,0,1,14,11ZM8,10H9a1,1,0,0,1,0,2H8a1,1,0,0,1,0-2Zm0,7H40a1,1,0,0,1,0,2H8a1,1,0,0,1,0-2Zm0,4H40a1,1,0,0,1,0,2H8a1,1,0,0,1,0-2Zm0,4H40a1,1,0,0,1,0,2H8a1,1,0,0,1,0-2Zm0,4H40a1,1,0,0,1,0,2H8a1,1,0,0,1,0-2Zm0,4H36a1,1,0,0,1,0,2H8a1,1,0,0,1,0-2ZM27,58H8a1,1,0,0,1,0-2H27a1,1,0,0,1,0,2Zm2-7H8a1,1,0,0,1,0-2H29a1,1,0,0,1,0,2Zm0-4H8a1,1,0,0,1,0-2H29a1,1,0,0,1,0,2ZM7,42a1,1,0,0,1,1-1H21a1,1,0,0,1,0,2H8A1,1,0,0,1,7,42Zm16,0a1,1,0,0,1,1-1h1a1,1,0,0,1,0,2H24A1,1,0,0,1,23,42Zm6,1H28a1,1,0,0,1,0-2h1a1,1,0,0,1,0,2Zm3-4H8a1,1,0,0,1,0-2H32a1,1,0,0,1,0,2Z" data-original="#000000" class="active-path" data-old_color="#000000" fill="#a0a09b"/><path d="M50.514,34.195a13.966,13.966,0,0,0-2.44-.216,13.75,13.75,0,0,0-7.946,2.534,14.024,14.024,0,0,0,5.509,25.252,13.752,13.752,0,0,0,10.388-2.318,14.024,14.024,0,0,0-5.51-25.252Zm5.255,7.581L43.7,53.711a1,1,0,0,1-1.41,0l-4-4a1,1,0,0,1,1.414-1.414l3.3,3.3L54.363,40.354a1,1,0,0,1,1.406,1.422Z" data-original="#000000" class="active-path" data-old_color="#000000" fill="#a0a09b"/></g> </svg>
