<?xml version="1.0"?>
<svg xmlns="http://www.w3.org/2000/svg" xmlns:xlink="http://www.w3.org/1999/xlink" version="1.1" id="Capa_1" x="0px" y="0px" viewBox="0 0 480 480" style="enable-background:new 0 0 480 480;" xml:space="preserve" width="512px" height="512px"><g><g>
	<g>
		<path d="M464,432h-16V32c0-8.832-7.168-16-16-16h-64c-8.832,0-16,7.168-16,16v400h-64V160c0-8.832-7.168-16-16-16h-64    c-8.832,0-16,7.168-16,16v272h-64V288c0-8.832-7.168-16-16-16H48c-8.832,0-16,7.168-16,16v144H16c-8.832,0-16,7.168-16,16    c0,8.832,7.168,16,16,16h448c8.832,0,16-7.168,16-16C480,439.168,472.832,432,464,432z" data-original="#000000" class="active-path" data-old_color="#000000" fill="#a0a09b"/>
	</g>
</g></g> </svg>
